<svg width="21" height="21" viewBox="0 0 21 21" fill="none" xmlns="http://www.w3.org/2000/svg">
<path d="M10.5683 4.60214C9.08837 4.60214 7.88376 5.80676 7.88376 7.28673C7.88376 8.76671 9.08837 9.97132 10.5683 9.97132C12.0483 9.97132 13.2529 8.76671 13.2529 7.28673C13.2529 5.80676 12.0483 4.60214 10.5683 4.60214ZM10.5683 9.20429C9.511 9.20429 8.65078 8.34407 8.65078 7.28673C8.65078 6.22939 9.511 5.36917 10.5683 5.36917C11.6257 5.36917 12.4859 6.22939 12.4859 7.28673C12.4859 8.34407 11.6257 9.20429 10.5683 9.20429Z" fill="white"/>
<path d="M15.5552 2.15419C14.1661 0.765108 12.3191 0 10.3548 0C8.39006 0 6.54344 0.765108 5.15436 2.15419C2.58368 4.72449 2.26421 9.56059 4.4625 12.4906L10.3548 21L16.2383 12.5025C18.4454 9.56059 18.1259 4.72449 15.5552 2.15419ZM15.6162 12.0542L10.3548 19.6523L5.08495 12.0423C3.09106 9.38379 3.37678 5.01635 5.69703 2.69648C6.94115 1.45236 8.59523 0.767025 10.3548 0.767025C12.1143 0.767025 13.7684 1.45236 15.0129 2.69648C17.3332 5.01635 17.6189 9.38379 15.6162 12.0542Z" fill="white"/>
</svg>
